<?xml version="1.0" encoding="utf-8"?>
<!-- Generator: Adobe Illustrator 25.2.0, SVG Export Plug-In . SVG Version: 6.00 Build 0)  -->
<svg version="1.1" id="Capa_1" xmlns="http://www.w3.org/2000/svg" xmlns:xlink="http://www.w3.org/1999/xlink" x="0px" y="0px"
	 viewBox="0 0 15 24.8" style="enable-background:new 0 0 15 24.8;" xml:space="preserve">
<g>
</g>
<path d="M1,5.9c0.6-0.6,1.5-0.6,2.1,0L14,16.8c0.6,0.6,0.6,1.5,0,2.1c-0.6,0.6-1.5,0.6-2.1,0L1,8C0.4,7.4,0.4,6.5,1,5.9z"/>
<path d="M11.9,5.9L1,16.8c-0.6,0.6-0.6,1.5,0,2.1s1.5,0.6,2.1,0L14,8c0.6-0.6,0.6-1.5,0-2.1C13.4,5.3,12.5,5.3,11.9,5.9z"/>
</svg>
